<svg width="282.27" height="282.27" version="1.1" viewBox="0 0 74.683 74.683" xmlns="http://www.w3.org/2000/svg" xmlns:xlink="http://www.w3.org/1999/xlink">
 <defs>
  <linearGradient id="c" x1="-169.54" x2="-100.6" y1="249.59" y2="249.59" gradientTransform="translate(169.92 -200.55)" gradientUnits="userSpaceOnUse">
   <stop stop-color="#ff7407" offset="0"/>
  </linearGradient>
  <linearGradient id="b" x1="-164.55" x2="-95.349" y1="226.12" y2="226.12" gradientTransform="translate(169.92 -200.55)" gradientUnits="userSpaceOnUse">
   <stop stop-color="#6d00af" offset="0"/>
  </linearGradient>
  <linearGradient id="a" x1="-141.38" x2="-124.68" y1="236.39" y2="236.39" gradientUnits="userSpaceOnUse">
   <stop stop-color="#b4b4b4" offset="0"/>
  </linearGradient>
 </defs>
 <g>
  <circle transform="rotate(223.43)" cx="-52.789" cy="-1.449" r="37.341" fill="#fff300" fill-opacity=".99608"/>
  <path d="m2.8185 23.604c4.8863 19.151 14.222 29.263 24.722 34.081 10.5 4.8179 21.983 1.9328 28.441-7.5962 2.8017-4.1335 7.2522-3.7503 10.224-1.9591 3.3373 2.0115 4.0001 7.2235 1.9591 10.224-11.478 16.874-34.574 21.073-51.732 9.9123-17.501-11.384-18.295-34.562-13.615-44.662z" fill="url(#c)"/>
  <path d="m71.655 50.747c-4.6335-18.604-14.006-28.731-24.506-33.549-10.5-4.8179-21.983-1.9328-28.441 7.5962-2.8018 4.1335-7.2522 3.7504-10.224 1.9591-3.3373-2.0115-4.0001-7.2235-1.959-10.224 11.478-16.874 34.574-21.073 51.732-9.9123 17.501 11.384 19.017 33.664 13.399 44.131z" fill="url(#b)"/>
  <g transform="matrix(1.7623 0 0 1.4754 272.47 -312.02)">
   <path d="m-139.62 220.79 8.4721-1.302 6.467 3.6432-2.8172 5.0043 0.10452 3.413-1.6568 0.1314-0.0139 18.564-3.9438 3.0396-4.4757-4.9873 5e-3 -17.31 1.9594 1.2435-0.0374-3.1939-5.8211-3.9286z" fill="url(#a)"/>
   <g>
    <path d="m-139.87 220.64-2.2833 4.8066 6.6113 3.9863 8.0137-1.0156 0.26299-0.78286-8.1028 0.97622-5.7637-3.4746 2.0716-4.4019z" color="#000000" style="-inkscape-stroke:none"/>
    <path d="m-125.01 223.19-0.0234 3.5273-2.3691 4.4785-8.1914 0.71289-5.9726-3.1191 0.0879-3.3828-0.5293-0.0137-0.0957 3.7129 6.4023 3.3438 8.6328-0.75195 2.5645-4.8476 0.0234-3.6562z" color="#000000" style="-inkscape-stroke:none"/>
    <path d="m-135.51 229.13c2.6e-4 0.0206-0.29684 0.086-0.29659 0.1066 7e-3 0.53802 0.32469 2.1484 0.33139 2.6864-7e-3 -0.53802 0.27105-2.1558 0.26435-2.6938-2.6e-4 -0.0206-0.29889-0.0786-0.29915-0.0992z" color="#000000" stroke-width=".26458px" style="-inkscape-stroke:none"/>
    <path d="m-127.5 227.88c-0.17053-4e-3 -0.14395 0.44532-0.13208 0.5675-2e-3 0.39758 0.1222 1.5909 0.12038 1.9884 2e-3 -0.39757 0.11949-1.5901 0.13858-1.9873 6e-3 -0.12039 0.0311-0.65892-0.12688-0.56869z" color="#000000" stroke-width=".26458px" style="-inkscape-stroke:none"/>
    <path d="m-131.08 219.29-8.5195 1.2637c-0.0723 0.0108-0.28636 0.0353-0.27557 0.10757 0.0108 0.0723 0.24237 0.16495 0.31464 0.15415l8.4277-1.25 6.2559 3.582-2.7246 4.938c-0.0354 0.0637-0.0127 0.14401 0.0508 0.17969 0.0637 0.0354 0.144 0.0127 0.17968-0.0508l2.8535-5.1666z" color="#000000" stroke-linecap="round" style="-inkscape-stroke:none"/>
    <path d="m-132.37 222.2c-0.26815-3e-3 -0.54022 5e-3 -0.81287 0.0238-2.4915 0.17311-4.4228 0.99981-4.4229 2.0956-5.3e-4 1.0959 1.9137 1.9087 4.4055 1.7354 2.4913-0.17323 4.432-1.1643 4.432-2.26 0.0197-0.6679-1.4596-1.5711-3.6018-1.5948zm-0.37258 0.70314c1.8564-0.0116 3.165 0.66202 3.165 1.3368 1e-5 0.91605-1.6364 1.5269-3.7193 1.6717-2.0832 0.1448-3.5155-0.60047-3.5151-1.3334-1e-5 -0.73743 1.4496-1.5102 3.5324-1.655 0.17967-0.0124 0.3591-0.0191 0.53692-0.0202z" stroke-dashoffset="40" stroke-linecap="round" stroke-linejoin="round"/>
    <path d="m-137.31 249.68 4.1742 5.5131 3.7668-4.7285-3.6843 2.5824-1.9658-2.3946z"/>
    <path d="m-138.51 230.99a5.0001 2.3985 13.713 0 0-3e-3 0.0341 5.0001 2.3985 13.713 0 0 0.46974 1.1328 5.0001 2.3985 13.713 0 0-0.46974 0.9586 5.0001 2.3985 13.713 0 0 0.46974 1.1328 5.0001 2.3985 13.713 0 0-0.46974 0.9586 5.0001 2.3985 13.713 0 0 0.46974 1.1327 5.0001 2.3985 13.713 0 0-0.46974 0.9586 5.0001 2.3985 13.713 0 0 0.46974 1.1328 5.0001 2.3985 13.713 0 0-0.46974 0.9586 5.0001 2.3985 13.713 0 0 0.46974 1.1327 5.0001 2.3985 13.713 0 0-0.46974 0.95912 5.0001 2.3985 13.713 0 0 0.46974 1.1322 5.0001 2.3985 13.713 0 0-0.46974 0.95911 5.0001 2.3985 13.713 0 0 0.46974 1.1322 5.0001 2.3985 13.713 0 0-0.46974 0.95912 5.0001 2.3985 13.713 0 0 0.46974 1.1322 5.0001 2.3985 13.713 0 0-0.46974 0.95911 5.0001 2.3985 13.713 0 0 4.8906 3.3584 5.0001 2.3985 13.713 0 0 4.8907-1.5456 5.0001 2.3985 13.713 0 0-0.21239-0.73949h-0.14934a4.2091 2.0751 14.391 0 1 0.0982 0.47749 4.2091 2.0751 14.391 0 1-4.1098 1.34 4.2091 2.0751 14.391 0 1-4.1093-2.9109 4.2091 2.0751 14.391 0 1 0.0119-0.15761 5.0001 2.3985 13.713 0 0 3.5801 1.4449 5.0001 2.3985 13.713 0 0 4.8907-1.5456 5.0001 2.3985 13.713 0 0-0.21239-0.73949h-0.14935a4.2091 2.0751 14.391 0 1 0.0982 0.47749 4.2091 2.0751 14.391 0 1-4.1098 1.34 4.2091 2.0751 14.391 0 1-3.5755-1.7632 4.2091 2.0751 14.391 0 1 1.0862-0.4346 5.0001 2.3985 13.713 0 0 1.972 0.57412 5.0001 2.3985 13.713 0 0 4.8907-1.5456 5.0001 2.3985 13.713 0 0-0.21239-0.73949h-0.14935a4.2091 2.0751 14.391 0 1 0.0982 0.47749 4.2091 2.0751 14.391 0 1-4.1098 1.34 4.2091 2.0751 14.391 0 1-3.5755-1.7632 4.2091 2.0751 14.391 0 1 1.0862-0.4346 5.0001 2.3985 13.713 0 0 1.972 0.57413 5.0001 2.3985 13.713 0 0 4.8907-1.5456 5.0001 2.3985 13.713 0 0-0.21239-0.73949h-0.14935a4.2091 2.0751 14.391 0 1 0.0982 0.47749 4.2091 2.0751 14.391 0 1-4.1098 1.34 4.2091 2.0751 14.391 0 1-3.575-1.7632 4.2091 2.0751 14.391 0 1 1.0857-0.4346 5.0001 2.3985 13.713 0 0 1.972 0.57361 5.0001 2.3985 13.713 0 0 4.8907-1.5456 5.0001 2.3985 13.713 0 0-0.21239-0.73949h-0.14935a4.2091 2.0751 14.391 0 1 0.0982 0.4775 4.2091 2.0751 14.391 0 1-4.1098 1.34 4.2091 2.0751 14.391 0 1-3.575-1.7627 4.2091 2.0751 14.391 0 1 1.0857-0.4346 5.0001 2.3985 13.713 0 0 1.972 0.57361 5.0001 2.3985 13.713 0 0 4.8907-1.5456 5.0001 2.3985 13.713 0 0-0.21239-0.73949h-0.14935a4.2091 2.0751 14.391 0 1 0.0982 0.47749 4.2091 2.0751 14.391 0 1-4.1093 1.34 4.2091 2.0751 14.391 0 1-3.576-1.7632 4.2091 2.0751 14.391 0 1 1.0862-0.43408 5.0001 2.3985 13.713 0 0 1.972 0.57361 5.0001 2.3985 13.713 0 0 4.8907-1.5456 5.0001 2.3985 13.713 0 0-0.21239-0.73948h-0.14883a4.2091 2.0751 14.391 0 1 0.0982 0.47749 4.2091 2.0751 14.391 0 1-4.1098 1.34 4.2091 2.0751 14.391 0 1-3.5755-1.7632 4.2091 2.0751 14.391 0 1 1.0862-0.4346 5.0001 2.3985 13.713 0 0 1.972 0.57412 5.0001 2.3985 13.713 0 0 4.8906-1.5456 5.0001 2.3985 13.713 0 0-0.21239-0.73949h-0.14934a4.2091 2.0751 14.391 0 1 0.0982 0.47749 4.2091 2.0751 14.391 0 1-4.1098 1.34 4.2091 2.0751 14.391 0 1-3.5755-1.7632 4.2091 2.0751 14.391 0 1 1.0862-0.4346 5.0001 2.3985 13.713 0 0 1.972 0.57413 5.0001 2.3985 13.713 0 0 4.8906-1.5456 5.0001 2.3985 13.713 0 0-0.21239-0.73949h-0.14934a4.2091 2.0751 14.391 0 1 0.0982 0.47749 4.2091 2.0751 14.391 0 1-4.1098 1.34 4.2091 2.0751 14.391 0 1-3.5755-1.7632 4.2091 2.0751 14.391 0 1 0.1788-0.1142zm1.3079 1.9477a5.0001 2.3985 13.713 0 0 1.0289 0.61185 5.0001 2.3985 13.713 0 0-0.87281 0.17932 4.2091 2.0751 14.391 0 1-0.16795-0.63355 4.2091 2.0751 14.391 0 1 0.0119-0.15762zm0 2.0914a5.0001 2.3985 13.713 0 0 1.0289 0.61185 5.0001 2.3985 13.713 0 0-0.87281 0.17932 4.2091 2.0751 14.391 0 1-0.16795-0.63356 4.2091 2.0751 14.391 0 1 0.0119-0.15761zm0 2.0913a5.0001 2.3985 13.713 0 0 1.0289 0.61185 5.0001 2.3985 13.713 0 0-0.87281 0.17932 4.2091 2.0751 14.391 0 1-0.16795-0.63355 4.2091 2.0751 14.391 0 1 0.0119-0.15762zm0 2.0914a5.0001 2.3985 13.713 0 0 1.0289 0.61185 5.0001 2.3985 13.713 0 0-0.87281 0.17931 4.2091 2.0751 14.391 0 1-0.16795-0.63355 4.2091 2.0751 14.391 0 1 0.0119-0.15761zm0 2.0913a5.0001 2.3985 13.713 0 0 1.0289 0.61185 5.0001 2.3985 13.713 0 0-0.87281 0.17932 4.2091 2.0751 14.391 0 1-0.16795-0.63304 4.2091 2.0751 14.391 0 1 0.0119-0.15813zm0 2.0914a5.0001 2.3985 13.713 0 0 1.0299 0.61236 5.0001 2.3985 13.713 0 0-0.87384 0.1788 4.2091 2.0751 14.391 0 1-0.16795-0.63303 4.2091 2.0751 14.391 0 1 0.0119-0.15813zm0 2.0919a5.0001 2.3985 13.713 0 0 1.0289 0.61185 5.0001 2.3985 13.713 0 0-0.87281 0.1788 4.2091 2.0751 14.391 0 1-0.16795-0.63304 4.2091 2.0751 14.391 0 1 0.0119-0.15761z" stroke-dashoffset="40" stroke-linecap="round" stroke-linejoin="round" stroke-width=".26458"/>
   </g>
   <path d="m-143.34 227.88c-5.5879 0.95081-8.0433 3.819-8.0443 6.681 2e-4 5.4527 7.8949 11.497 17.633 13.501 9.7385 2.004 17.753-0.80369 17.753-6.2563 0.0133-3.425-3.5718-7.9189-8.8886-10.507l-0.22286 0.38597c5.1513 2.194 8.5664 6.8215 8.5675 9.6539 5.9e-4 5.053-7.6474 7.6552-16.936 5.7979-9.2882-1.857-16.818-7.458-16.818-12.51 3e-3 -2.4841 2.0612-5.0199 7.0874-6.0056z" fill="#272727"/>
   <path d="m-143.47 227.88c-3.2816 1.0932-4.4825 2.9794-4.4833 5.0474 1.7e-4 3.9399 6.471 8.8712 14.41 10.319 7.9385 1.448 13.302-1.1148 13.302-5.0546-0.0481-0.93895-0.28775-1.5792-0.84778-2.4938l-0.43912 0.0514c0.38615 0.77988 0.63394 1.3319 0.64661 2.0879 4.8e-4 3.6005-5.0032 5.9093-12.372 4.586-7.3684-1.3232-13.145-5.7966-13.145-9.3967 2e-3 -1.77 1.2017-3.42 3.4601-4.3515z"/>
  </g>
 </g>
</svg>
